<?xml version="1.0" encoding="utf-8"?>
<!-- Generator: Adobe Illustrator 16.0.0, SVG Export Plug-In . SVG Version: 6.00 Build 0)  -->
<!DOCTYPE svg PUBLIC "-//W3C//DTD SVG 1.1//EN" "http://www.w3.org/Graphics/SVG/1.1/DTD/svg11.dtd">
<svg version="1.1" id="Livello_1" xmlns="http://www.w3.org/2000/svg" xmlns:xlink="http://www.w3.org/1999/xlink" x="0px" y="0px"
	 width="32px" height="32px" viewBox="0 0 32 32" enable-background="new 0 0 32 32" xml:space="preserve">
<rect fill="#FFFFFF" width="32" height="32"/>
<rect x="1" y="1" fill="#9A1E5A" width="30" height="30"/>
<g>
	<g>
		<path fill="#FFFFFF" d="M10.821,20.078H7.243v3.016h4.234V25H4.946V13.625h6.516v1.914H7.243v2.687h3.578V20.078z"/>
		<path fill="#FFFFFF" d="M16.36,17.531l1.531-3.906h2.633l-2.672,5.64L20.586,25h-2.664l-1.562-3.977L14.805,25h-2.664l2.734-5.734
			l-2.68-5.64h2.633L16.36,17.531z"/>
	</g>
</g>
<g>
	<g>
		<path fill="#EFAAC3" d="M8,10V7h1v3H8z M9,7V6h2v1H9z M9,11v-1h2v1H9z"/>
		<rect x="8" y="6" opacity="0.5" fill="#EFAAC3" width="1" height="1"/>
		<rect x="8" y="10" opacity="0.5" fill="#EFAAC3" width="1" height="1"/>
	</g>
	<g>
		<path fill="#EFAAC3" d="M4,10V7h1v3H4z M5,7V6h1v1H5z M5,11v-1h1v1H5z M6,10V7h1v3H6z"/>
		<rect x="4" y="6" opacity="0.5" fill="#EFAAC3" width="1" height="1"/>
		<rect x="6" y="6" opacity="0.5" fill="#EFAAC3" width="1" height="1"/>
		<rect x="6" y="10" opacity="0.5" fill="#EFAAC3" width="1" height="1"/>
		<rect x="4" y="10" opacity="0.5" fill="#EFAAC3" width="1" height="1"/>
	</g>
</g>
<g>
</g>
<g>
</g>
<g>
</g>
<g>
</g>
<g>
</g>
<g>
</g>
</svg>
